PathFileType	4	(X/Y/Z)	37_2_23_p1_0-389_filt_butterworth.trc
DataRate	CameraRate	NumFrames	NumMarkers	Units	OrigDataRate	OrigDataStartFrame	OrigNumFrames
59.0	59.0	5	27	m	59.0	194	389
Frame#	Time	RHip			RKnee			RAnkle			RBigToe			RSmallToe			RHeel			LHip			LKnee			LAnkle			LBigToe			LSmallToe			LHeel			Neck			Head			Nose			RShoulder			RElbow			RWrist			RThumb			RIndex			RPinky			LShoulder			LElbow			LWrist			LThumb			LIndex			LPinky			
		X1	Y1	Z1	X2	Y2	Z2	X3	Y3	Z3	X4	Y4	Z4	X5	Y5	Z5	X6	Y6	Z6	X7	Y7	Z7	X8	Y8	Z8	X9	Y9	Z9	X10	Y10	Z10	X11	Y11	Z11	X12	Y12	Z12	X13	Y13	Z13	X14	Y14	Z14	X15	Y15	Z15	X16	Y16	Z16	X17	Y17	Z17	X18	Y18	Z18	X19	Y19	Z19	X20	Y20	Z20	X21	Y21	Z21	X22	Y22	Z22	X23	Y23	Z23	X24	Y24	Z24	X25	Y25	Z25	X26	Y26	Z26	X27	Y27	Z27	
194	3.288135593220339	0.3607418725011956	0.5987900315973341	0.5560225353492495	0.3947535116315427	0.8217741832562364	0.9841817275013858	0.4146297548488633	1.009700924327611	1.3980919634853186	0.3308005106239211	0.8379306679122025	1.424323625066649	0.3965000064072661	0.8205647707592918	1.4208162274909117	0.4222533613215238	1.0577540023125218	1.4478996334134429	0.17564945352630204	0.681914098763315	0.5471450243066273	0.16372666371226055	0.8970017783414987	0.9763101358667645	0.1696201104498746	1.0466154372991303	1.382550291153445	0.15010709968351174	0.8738611089183084	1.4124751561102056	0.10795103309749768	0.9555919645227625	1.4238830422571556	0.19771059993206994	1.0545623948271865	1.422181721169431	0.23467900411882042	0.46078748364177835	0.02386098742273229	0.21459659744291867	0.38822006151543714	-0.19470688919834525	0.179656602920704	0.36031855747214914	-0.07296487456156599	0.41318514074752377	0.45066654186072874	0.06738647366689732	0.6672931692622742	0.44247969597425274	0.031226553697737348	0.8741827308494567	0.4087301210188862	-0.07226867922705035	0.9503716915297122	0.3709183562118339	-0.16938388071380311	0.9988825085564977	0.3725870736322868	-0.1894122203460542	1.0287511778419565	0.3729968977728699	-0.13700401076395494	0.10760975939142389	0.5456096887527013	0.05407228548522819	-0.11951335647015007	0.7184908212643293	0.00268641540144823	-0.2750821208697251	0.7410864648063352	-0.15170926235216692	-0.26791464315129593	0.7388674740333119	-0.22720958601628263	-0.3239161272679886	0.6917249058030503	-0.2378414421174858	-0.36760435611796816	0.6560031888258672	-0.2120326046081504
195	3.305084745762712	0.3584498699860733	0.5970305408739868	0.5541064756700363	0.391821269056647	0.8168875877123585	0.9785892944729578	0.4143671360962785	1.0094965614614466	1.3966597692876817	0.3283705927377369	0.8463530134058099	1.4282470586198113	0.39574842548320627	0.8186104372976828	1.42039907104586	0.42055330887660425	1.057670117124038	1.4484254033497583	0.1738608403067544	0.6770208759617968	0.5437150260407697	0.1602976271486523	0.895253594515286	0.968753773298493	0.1702373233902359	1.046085978631036	1.3794501542496427	0.15023074647994572	0.873801859105545	1.4101929129125754	0.10741992852899815	0.9550841004547643	1.4211685362433772	0.1954088513653082	1.0513132936298628	1.41627774835327	0.2349970056303523	0.4610553489257243	0.02386047853840207	0.2155808354770685	0.38825739913539103	-0.195266235131869	0.18091411379535885	0.3557633119996762	-0.06939829913123964	0.41298548545802655	0.4499879683460905	0.06757069552403829	0.6659479889006643	0.44199359168390784	0.03631561365457324	0.8814908740334126	0.417760799529875	-0.05481085467285141	0.9652505909539086	0.36604486856025986	-0.14185387457756077	1.0155978323723795	0.3894885351655004	-0.1655457038101599	1.0442231316362518	0.3954902537107656	-0.11091048414990698	0.10756678717501704	0.5457783233648271	0.05537412053732932	-0.12037705704333888	0.7102687515950116	0.01252747482902087	-0.2834135872483647	0.7343245966150748	-0.13512585404735122	-0.2744798229862377	0.7394922746071951	-0.21020584882937576	-0.334017230400996	0.7125306201374231	-0.22129306689412365	-0.37950484505601706	0.6635565201674176	-0.19773411498708626
196	3.3220338983050848	0.3568952593870029	0.5962736659996714	0.5522892950741072	0.3905243454170644	0.8142633733899611	0.976198420084651	0.4142728240459045	1.009547367253766	1.3961155855609158	0.3273945997343201	0.8590784326668157	1.4323953853180547	0.39526060240646926	0.8177384483702792	1.420209085628993	0.4194694683975753	1.0580747685488907	1.4495893598980834	0.17334812091827945	0.6747024303820821	0.5407309563797323	0.15809793154966686	0.893321787333941	0.9644992792468212	0.17007970997916178	1.045515597665374	1.3776558710113826	0.15015296147143453	0.8737669351891437	1.409913382022756	0.10635365232940962	0.95387906698188	1.419045302259304	0.19326264890418762	1.0505345696928805	1.413968315584193	0.2356502306545081	0.4613358038486076	0.024183423932002596	0.21589554098917918	0.38825543027008136	-0.19692227451248787	0.1816628095506609	0.35262014557788984	-0.06660439023004008	0.41270501063231313	0.44966706548174074	0.06830280916361303	0.6666725850922364	0.4470007386857813	0.04194556316534321	0.888289822368103	0.4282981617004247	-0.03986159514394183	0.9776580928276478	0.3679560151317083	-0.12080125395027141	1.028176560134487	0.39829364727263356	-0.14105719769938274	1.0530379981618407	0.4127128757530475	-0.08373378424322186	0.10751975048439755	0.5458710261141659	0.05635913512444281	-0.1215509268727762	0.7007007231734939	0.021028985590232235	-0.2922899202941926	0.7310195334791425	-0.11538857856606663	-0.28032231442452044	0.7395537185986681	-0.19594188399484946	-0.34289491887395235	0.7306905254695539	-0.20723149612688946	-0.38707508792497336	0.6656229295591506	-0.18283392124100636
197	3.3389830508474576	0.35690301181829864	0.5972368401278121	0.5512267229029405	0.39023843970569	0.813986714057956	0.9760616860261484	0.41414798231709415	1.009343115564007	1.3961522103247106	0.3289629394183654	0.8681385117717657	1.433924279192333	0.39546367529578036	0.8188578813793321	1.420627702873737	0.41894696685816246	1.0580905574952462	1.450632424317807	0.17354670157503835	0.674352755129829	0.5392418879594155	0.15760754221644235	0.8907025557140122	0.9642890142458442	0.16836944210696952	1.0448214075880897	1.3771685225377743	0.1500821112579003	0.8732699844654506	1.4116620960378874	0.10534934945301525	0.9522987042974727	1.4184593304380528	0.19115452125845123	1.0521084519478343	1.4164600743857647	0.23665768480449403	0.4614126273782721	0.0250620693421123	0.21582762257760257	0.38820040020548585	-0.19924545742588767	0.18236972933623283	0.3526768115584231	-0.06556158342676265	0.4125924237331545	0.44994446987033837	0.06950723041306167	0.6714950530211355	0.46052840652503024	0.04791096594241836	0.8945027994805681	0.4402762176857044	-0.027416523860712434	0.9890287323857845	0.3809302838746588	-0.10808478509242637	1.037747281748948	0.40439123204474914	-0.11883314016896862	1.0585912691382502	0.42496338323304744	-0.058028494906913634	0.10744378326602197	0.5459040154493651	0.0567295679097968	-0.12443923455221174	0.6939453634846278	0.026961051068571877	-0.3002162016788283	0.7318051592020616	-0.09655791634147905	-0.2858835507533111	0.7389259851919188	-0.182351944247522	-0.349591994174457	0.7453544287093543	-0.19678392668666067	-0.3928543307987617	0.669217199337528	-0.16798147578347086
198	3.3559322033898304	0.35837876445393446	0.6004129005280533	0.5509561634171194	0.39022609880841624	0.8147610001905805	0.9765234714942226	0.4134448529816536	1.007524346191301	1.3961662455181203	0.3325732538018423	0.868224836681162	1.4324738756032913	0.3966090863562508	0.8222210015602968	1.421934647639557	0.4186926793735326	1.0573070446369406	1.4510765192719821	0.17378094041635997	0.674661747851059	0.5389783313849921	0.15854502469500356	0.8866689837346223	0.9659790518934311	0.16511706238954557	1.0440689721302154	1.377619428059139	0.15004460951960558	0.8708938535753278	1.4136805374146015	0.10451061855618118	0.9505305197197298	1.4191866232929322	0.18884788039087574	1.0574878612523975	1.4223838070023511	0.23756725075589546	0.4612120339553631	0.026265259658293	0.21572279035607658	0.3880977120117545	-0.20109280626425724	0.18306930926934922	0.3543353506115921	-0.0658199104209457	0.4127270401046449	0.4505534334260404	0.07057040682991608	0.6781047063476705	0.47663412434166197	0.053993454418542614	0.9006322343832521	0.4515099682097235	-0.016502510341900457	0.9976654261345136	0.3972031326784475	-0.09968202657403832	1.0456232143337112	0.41122934164262004	-0.0996886303066712	1.0627420611330596	0.43193700773137356	-0.03591022155771657	0.1073914541731877	0.5459533975575568	0.05667337551939194	-0.12850436927879122	0.6897394169850306	0.03119993341890801	-0.30664448754130097	0.7339146438296635	-0.08254215170367232	-0.29266758808114274	0.73734489948363	-0.16779057191416716	-0.35575465462314637	0.7563459075446594	-0.18760153728327805	-0.3992477897568499	0.6778891045314889	-0.15270577728635878
